<svg width="18" height="18" viewBox="0 0 18 18" fill="none" xmlns="http://www.w3.org/2000/svg">
<path d="M9.84739 17.0626C9.64489 17.0626 9.48738 17.01 9.37488 16.9576C9.10488 16.8301 8.64738 16.4776 8.64738 15.5326V10.6951L4.6049 14.4001C4.3799 14.6101 4.01987 14.5951 3.80987 14.3626C3.59987 14.1301 3.61489 13.7776 3.84739 13.5676L8.64738 9.16506V8.82755L3.84739 4.42506C3.61489 4.21506 3.59987 3.86256 3.80987 3.63006C4.01987 3.40506 4.3799 3.38257 4.6049 3.59257L8.64738 7.29757V2.46006C8.64738 1.51506 9.10488 1.15507 9.37488 1.03507C9.64488 0.907566 10.2074 0.787551 10.9349 1.39505L13.8224 3.80257C14.1374 4.06507 14.3249 4.44007 14.3324 4.83757C14.3399 5.23507 14.1749 5.61755 13.8674 5.89505L10.4924 8.99255L13.8674 12.0901C14.1674 12.3676 14.3399 12.7576 14.3324 13.1476C14.3249 13.5451 14.1374 13.9201 13.8224 14.1826L10.9349 16.5901C10.5074 16.9576 10.1324 17.0626 9.84739 17.0626ZM9.77238 9.86256V15.5326C9.77238 15.8101 9.83238 15.9301 9.86238 15.9451C9.86988 15.9376 10.0049 15.9076 10.2149 15.7351L13.1024 13.3276C13.1699 13.2676 13.2074 13.2001 13.2074 13.1251C13.2074 13.0501 13.1774 12.9826 13.1099 12.9226L9.77238 9.86256ZM9.83988 2.06256C9.83238 2.07006 9.77238 2.19757 9.77238 2.46757V8.13757L13.1099 5.07755C13.1774 5.01755 13.2074 4.95006 13.2074 4.87506C13.2074 4.80006 13.1699 4.73257 13.1024 4.67257L10.2074 2.26505C10.0124 2.10005 9.88488 2.06256 9.83988 2.06256Z" fill="#FCFCFD"/>
</svg>
