<svg width="33" height="33" viewBox="0 0 33 33" fill="none" xmlns="http://www.w3.org/2000/svg">
<path fill-rule="evenodd" clip-rule="evenodd" d="M16.6038 4.19385C16.86 4.19385 17.4538 4.24385 17.9163 4.3126C18.3788 4.38135 19.0163 4.50635 19.3225 4.59385C19.6288 4.6751 20.1413 4.84385 20.4475 4.96885C20.7538 5.09385 21.235 5.31885 21.51 5.46885C21.785 5.61885 22.235 5.9001 22.51 6.09385C22.785 6.29385 23.2038 6.6251 23.4475 6.84385C23.6913 7.05635 24.085 7.46885 24.3288 7.75635C24.5725 8.04385 24.9225 8.50635 25.11 8.78135C25.2913 9.05635 25.6038 9.61885 25.7975 10.0313C25.9975 10.4438 26.2288 11.0188 26.3163 11.3126C26.4038 11.6063 26.535 12.1313 26.6038 12.4876C26.6725 12.8376 26.7475 13.4688 26.7663 13.8876C26.7913 14.3563 26.7788 14.9251 26.7288 15.3438C26.6913 15.7251 26.6413 16.0688 26.6288 16.1126C26.6163 16.1501 26.5663 16.1876 26.5288 16.1876C26.485 16.1876 26.31 16.2251 26.135 16.2751C25.9413 16.3313 25.7038 16.4688 25.51 16.6438C25.335 16.7938 25.0975 17.0688 24.9725 17.2563C24.8475 17.4438 24.4288 18.1126 24.035 18.7501C23.6475 19.3876 23.1725 20.1438 22.985 20.4376C22.7975 20.7313 22.5475 21.1813 22.4288 21.4376C22.31 21.6938 22.1538 22.1563 21.9475 23.0063L21.2913 23.3438C20.9288 23.5251 20.2975 23.7876 19.885 23.9251C19.4725 24.0626 18.8788 24.2313 18.5725 24.2938C18.1225 24.3813 17.7288 24.4063 16.635 24.4001C15.4538 24.4001 15.1725 24.3813 14.635 24.2626C14.2913 24.1813 13.7538 24.0376 13.4475 23.9313C13.1413 23.8313 12.5475 23.5813 11.385 23.0063L11.285 22.5501C11.2288 22.3001 11.1038 21.9001 11.01 21.6563C10.91 21.4126 10.7163 21.0313 10.5788 20.8063C10.435 20.5751 9.84126 19.6188 9.26001 18.6813C8.67876 17.7376 8.09751 16.8688 7.97876 16.7501C7.86001 16.6313 7.63501 16.4688 7.47876 16.3938C7.32251 16.3251 7.09126 16.2376 6.96001 16.2126C6.83501 16.1813 6.71626 16.1313 6.70376 16.0938C6.69126 16.0563 6.64126 15.7251 6.60376 15.3438C6.55376 14.9376 6.54126 14.3501 6.56001 13.9063C6.58501 13.4938 6.65376 12.8626 6.72876 12.5001C6.79751 12.1376 6.92876 11.6063 7.01626 11.3126C7.10376 11.0188 7.33501 10.4438 7.53501 10.0313C7.72876 9.61885 8.04126 9.05635 8.22251 8.78135C8.41001 8.50635 8.76001 8.04385 9.00376 7.75635C9.24751 7.46885 9.67251 7.03135 9.94751 6.79385C10.2225 6.55635 10.6475 6.21885 10.885 6.0501C11.1225 5.88135 11.5475 5.61885 11.8225 5.46885C12.0975 5.31885 12.5788 5.09385 12.885 4.96885C13.1913 4.84385 13.7163 4.6751 14.0413 4.58135C14.3663 4.49385 14.9725 4.3751 15.385 4.3126C15.7975 4.2501 16.3475 4.2001 16.6038 4.19385ZM14.8538 7.2876C14.6288 7.34385 14.21 7.4876 13.9163 7.60635C13.6225 7.7251 13.2163 7.9251 13.01 8.0501C12.8038 8.16885 12.41 8.44385 12.135 8.65635C11.86 8.86885 11.4975 9.19385 11.3288 9.38135C11.16 9.56885 10.885 9.91885 10.7163 10.1563C10.5413 10.3938 10.2975 10.8063 10.1663 11.0626C10.0413 11.3188 9.87251 11.7188 9.79751 11.9501C9.72876 12.1876 9.67876 12.4001 9.69751 12.4376C9.71626 12.4751 9.87876 12.5438 10.06 12.6001C10.2663 12.6688 10.4975 12.6938 10.6975 12.6751C10.8788 12.6501 11.335 12.5001 11.7913 12.2938C12.2225 12.1063 12.8788 11.8563 13.26 11.7313C13.6413 11.6126 14.1725 11.4688 14.4475 11.4126C14.7225 11.3563 15.2038 11.2876 15.51 11.2501C15.8163 11.2188 16.4163 11.1876 16.8413 11.1876C17.26 11.1876 17.9225 11.2313 18.31 11.2813C18.6913 11.3313 19.335 11.4563 19.7288 11.5563C20.1225 11.6563 20.7163 11.8438 21.0413 11.9751C21.3663 12.1001 21.7913 12.2876 21.9788 12.3813C22.1663 12.4751 22.5038 12.6001 22.7288 12.6501C22.9538 12.7063 23.235 12.7501 23.3538 12.7501C23.4725 12.7501 23.6163 12.7251 23.6663 12.6876C23.7475 12.6376 23.7475 12.5876 23.6475 12.2376C23.585 12.0188 23.4163 11.5876 23.2663 11.2813C23.1225 10.9751 22.8538 10.4938 22.6663 10.2188C22.4788 9.94385 22.085 9.48135 21.7913 9.1876C21.4975 8.89385 21.035 8.50635 20.76 8.31885C20.485 8.1376 20.0663 7.89385 19.8225 7.78135C19.5788 7.66885 19.21 7.51885 18.9975 7.44385C18.7788 7.36885 18.3975 7.26885 18.1538 7.2126C17.9038 7.15635 17.3163 7.10635 16.8538 7.09385C16.3913 7.08135 15.8413 7.09385 15.635 7.13135C15.4288 7.1626 15.0788 7.23135 14.8538 7.2876ZM15.6038 13.2938C15.485 13.3688 15.2788 13.5376 15.1538 13.6813C15.0225 13.8251 14.8538 14.0563 14.7788 14.2063C14.685 14.3938 14.635 14.6251 14.6163 15.0001C14.585 15.4938 14.5975 15.5626 14.7725 15.9376C14.8788 16.1626 15.0725 16.4501 15.2038 16.5813C15.3413 16.7188 15.5913 16.9001 15.76 16.9876C16.035 17.1376 16.1475 17.1563 16.6663 17.1563C17.185 17.1563 17.2975 17.1376 17.5725 16.9876C17.7475 16.9001 17.9913 16.7188 18.1225 16.5813C18.26 16.4501 18.4413 16.2063 18.5288 16.0313C18.6788 15.7563 18.6975 15.6501 18.6975 15.0938C18.6975 14.5688 18.6788 14.4251 18.56 14.2063C18.4788 14.0563 18.2975 13.8063 18.1538 13.6501C18.0038 13.4938 17.7288 13.2938 17.5413 13.2001C17.2913 13.0813 17.0725 13.0313 16.76 13.0188C16.5225 13.0063 16.21 13.0376 16.0725 13.0813C15.935 13.1251 15.7225 13.2188 15.6038 13.2938ZM10.01 16.0438C9.94126 16.0813 9.84751 16.1876 9.80376 16.2876C9.74751 16.3938 9.73501 16.5438 9.76001 16.6563C9.77876 16.7563 9.91626 17.1001 10.0663 17.4063C10.21 17.7126 10.4788 18.1938 10.6663 18.4688C10.8475 18.7438 11.2413 19.2063 11.535 19.5001C11.8288 19.7938 12.3413 20.2126 12.6663 20.4251C12.9913 20.6376 13.4663 20.9001 13.7163 21.0001C13.9663 21.1063 14.2288 21.1751 14.31 21.1563C14.385 21.1376 14.51 21.0626 14.5913 20.9813C14.6663 20.9063 14.735 20.7626 14.735 20.6563C14.7413 20.5563 14.685 20.1438 14.6163 19.7501C14.5413 19.3563 14.4413 18.9063 14.385 18.7501C14.3288 18.5938 13.9663 18.0626 13.585 17.5626C13.2038 17.0626 12.7725 16.5313 12.635 16.3813C12.4975 16.2313 12.2725 16.0563 12.135 15.9938C11.9975 15.9376 11.76 15.8688 11.6038 15.8563C11.4475 15.8376 11.0538 15.8563 10.7288 15.9001C10.4038 15.9376 10.0788 16.0063 10.01 16.0438ZM21.1225 16.0251C21.0225 16.0751 20.8475 16.2251 20.7225 16.3563C20.5975 16.4876 20.1788 17.0001 19.7913 17.5001C19.4038 18.0001 19.0475 18.5063 18.9913 18.6251C18.9413 18.7438 18.8288 19.1813 18.7475 19.5938C18.6663 20.0063 18.5975 20.4563 18.5975 20.5938C18.5975 20.7751 18.635 20.8813 18.7413 20.9813C18.8225 21.0626 18.9475 21.1376 19.0225 21.1563C19.1038 21.1751 19.3663 21.1063 19.6163 21.0001C19.8663 20.9001 20.3413 20.6438 20.6663 20.4251C20.9913 20.2126 21.4975 19.8001 21.7975 19.5063C22.0913 19.2126 22.4788 18.7438 22.6663 18.4688C22.8538 18.1938 23.1225 17.7126 23.2725 17.4063C23.4163 17.1001 23.5538 16.7563 23.5788 16.6563C23.6038 16.5376 23.5788 16.3938 23.5163 16.2688C23.4475 16.1313 23.3475 16.0438 23.21 16.0063C23.1038 15.9751 22.8413 15.9313 22.635 15.9063C22.4288 15.8876 22.1475 15.8563 22.01 15.8438C21.8725 15.8313 21.6538 15.8438 21.5225 15.8813C21.3975 15.9126 21.2163 15.9751 21.1163 16.0251H21.1225ZM5.56001 14.3813C5.65376 14.3751 5.67251 14.4688 5.69751 15.0813C5.72251 15.4626 5.75376 15.9063 5.77251 16.0626C5.80376 16.3376 5.80376 16.3438 5.53501 16.5063C5.38501 16.6001 5.18501 16.7813 5.08501 16.9126C4.97876 17.0501 4.84126 17.2813 4.77876 17.4376C4.69751 17.6188 4.65376 17.8626 4.65376 18.1251C4.65376 18.4626 4.72876 18.7626 5.09751 19.8751C5.34126 20.6126 5.56626 21.3376 5.60376 21.4876C5.64126 21.6376 5.73501 21.7938 5.81001 21.8438C5.91001 21.9126 6.01001 21.9251 6.13501 21.8938C6.23501 21.8626 6.36001 21.7751 6.41626 21.6876C6.47876 21.5813 6.49751 21.4438 6.47251 21.2501C6.45376 21.0938 6.22876 20.3626 5.98501 19.6251C5.61626 18.5313 5.54126 18.2376 5.57251 18.0313C5.59126 17.8938 5.67251 17.6813 5.75376 17.5626C5.83501 17.4438 6.00376 17.2938 6.12876 17.2376C6.25376 17.1751 6.48501 17.1251 6.64126 17.1251C6.79751 17.1251 6.99751 17.1626 7.09126 17.2126C7.19126 17.2626 7.32251 17.3688 7.39751 17.4501C7.46626 17.5251 7.96001 18.3001 8.48501 19.1563C9.01626 20.0188 9.56626 20.8876 9.70376 21.0938C9.84751 21.3001 10.0475 21.6813 10.1538 21.9376C10.26 22.1938 10.385 22.6001 10.4288 22.8438C10.4725 23.1126 10.485 23.4626 10.46 23.7501C10.435 24.0063 10.3475 24.4751 10.2663 24.7813C10.185 25.0876 9.99751 25.6376 9.86001 26.0001C9.71626 26.3626 9.54126 26.8126 9.47251 27.0001C9.36001 27.2813 9.33501 27.4813 9.32876 28.8313L8.82876 28.7876C8.55376 28.7688 7.44126 28.7313 6.36001 28.7126C5.27876 28.6938 4.30376 28.6501 4.20376 28.6251C4.09126 28.5876 3.98501 28.5001 3.93501 28.3938C3.86001 28.2376 3.87876 28.1376 4.14126 27.3126C4.34751 26.6626 4.44126 26.2626 4.46626 25.9063C4.48501 25.5813 4.46626 25.2501 4.40376 24.9688C4.34751 24.7126 4.02251 23.8688 3.61001 22.9376C3.22876 22.0626 2.86001 21.1501 2.79126 20.9063C2.72251 20.6501 2.67251 20.2751 2.67251 20.0001C2.67251 19.7438 2.72876 19.3063 2.79751 19.0313C2.86626 18.7563 3.11626 17.8813 3.35376 17.0938C3.67876 16.0376 3.84751 15.5813 3.99751 15.3626C4.11001 15.2001 4.30376 14.9876 4.42251 14.8938C4.54126 14.8001 4.82251 14.6438 5.04751 14.5501C5.27251 14.4626 5.50376 14.3813 5.56001 14.3813ZM27.7725 14.3751C27.8225 14.3751 28.0663 14.4563 28.3163 14.5563C28.585 14.6688 28.8725 14.8438 29.035 14.9938C29.1788 15.1376 29.3663 15.3688 29.4475 15.5188C29.5288 15.6626 29.7975 16.4438 30.035 17.2501C30.2788 18.0563 30.5163 18.8876 30.5725 19.0938C30.6288 19.3001 30.6725 19.6813 30.6725 19.9376C30.6725 20.2001 30.6225 20.6126 30.5538 20.8751C30.485 21.1313 30.1163 22.0626 29.735 22.9376C29.3225 23.8751 28.9975 24.7126 28.9413 24.9688C28.8788 25.2501 28.86 25.5813 28.8788 25.9063C28.9038 26.2626 28.9913 26.6501 29.1975 27.2813C29.3538 27.7626 29.485 28.2063 29.485 28.2688C29.485 28.3251 29.435 28.4251 29.3788 28.4876C29.2725 28.5938 29.0663 28.6063 26.86 28.6501C25.535 28.6751 24.3475 28.7126 23.985 28.7813L24.0288 28.2501C24.0538 27.9063 24.0413 27.6063 23.9913 27.4063C23.9475 27.2376 23.7663 26.7001 23.5788 26.2188C23.3975 25.7376 23.1725 25.1063 23.0788 24.8126C22.9788 24.5001 22.8975 24.0626 22.8788 23.7501C22.8538 23.3751 22.8788 23.0876 22.9475 22.7813C23.0038 22.5376 23.11 22.1876 23.185 22.0001C23.26 21.8126 23.4225 21.4876 23.5475 21.2813C23.6788 21.0751 24.2475 20.1501 24.8225 19.2188C25.4663 18.1688 25.9475 17.4626 26.085 17.3438C26.2725 17.1876 26.3788 17.1501 26.6913 17.1376C27.0163 17.1188 27.1163 17.1376 27.2913 17.2626C27.41 17.3376 27.56 17.4751 27.6225 17.5626C27.6913 17.6501 27.76 17.8438 27.7788 18.0001C27.81 18.2376 27.7413 18.5063 27.335 19.7188C27.0788 20.5063 26.86 21.2563 26.86 21.3751C26.86 21.4938 26.8975 21.6501 26.9413 21.7188C26.9913 21.7876 27.11 21.8626 27.21 21.8938C27.335 21.9251 27.435 21.9126 27.535 21.8438C27.61 21.7938 27.7038 21.6313 27.7413 21.4876C27.7788 21.3376 28.01 20.6126 28.2538 19.8751C28.61 18.7751 28.6913 18.4563 28.6913 18.1251C28.6913 17.8563 28.6475 17.6251 28.5725 17.4376C28.5038 17.2813 28.3663 17.0501 28.26 16.9126C28.16 16.7813 27.96 16.6001 27.81 16.5063C27.5413 16.3438 27.5413 16.3376 27.5725 16.0626C27.5913 15.9063 27.6288 15.4626 27.6475 15.0813C27.6788 14.5501 27.71 14.3751 27.7725 14.3751ZM16.66 13.9376C16.8663 13.9376 17.0788 13.9813 17.235 14.0626C17.3725 14.1313 17.5538 14.2938 17.6413 14.4251C17.7288 14.5501 17.8163 14.8001 17.835 14.9688C17.8663 15.2126 17.8475 15.3438 17.7413 15.5813C17.6538 15.7688 17.5163 15.9438 17.3475 16.0626C17.1975 16.1688 16.9788 16.2688 16.86 16.2876C16.7413 16.3063 16.5225 16.2938 16.3788 16.2563C16.2288 16.2188 16.01 16.0938 15.885 15.9876C15.7663 15.8751 15.6225 15.6563 15.5663 15.5001C15.4975 15.3063 15.4788 15.1313 15.51 14.9376C15.5288 14.7813 15.6225 14.5501 15.71 14.4251C15.8038 14.2938 15.9788 14.1376 16.1038 14.0688C16.2413 13.9876 16.4538 13.9438 16.66 13.9376Z" fill="#FCFCFD"/>
</svg>
