<svg width="26" height="26" viewBox="0 0 26 26" fill="none" xmlns="http://www.w3.org/2000/svg">
<path d="M13.0628 21.6666C10.6549 21.6666 8.60848 20.8241 6.92353 19.1392C5.23859 17.4542 4.39612 15.4078 4.39612 12.9999C4.39612 10.8051 5.11112 8.90203 6.54112 7.29076C7.97112 5.67948 9.74201 4.72831 11.8538 4.43726C11.9123 4.43726 11.9697 4.43942 12.026 4.44376C12.0824 4.44809 12.1376 4.45423 12.1918 4.46217C11.8263 4.97206 11.5371 5.53901 11.324 6.16301C11.111 6.78701 11.0045 7.44098 11.0045 8.12492C11.0045 10.0511 11.6783 11.688 13.026 13.0357C14.3736 14.3833 16.0109 15.0575 17.9378 15.0583C18.6246 15.0583 19.2793 14.9517 19.9019 14.7387C20.5244 14.5256 21.0834 14.2364 21.5789 13.8709C21.5875 13.9251 21.5937 13.9803 21.5973 14.0367C21.6009 14.093 21.6031 14.1504 21.6038 14.2089C21.3264 16.32 20.3821 18.0905 18.7709 19.5205C17.1596 20.9505 15.2576 21.6659 13.0628 21.6666Z" fill="white"/>
</svg>
