<svg width="24" height="24" viewBox="0 0 24 24" fill="none" xmlns="http://www.w3.org/2000/svg">
<path d="M21.0909 12H22M12 2.90909V2M12 22V21.0909M19.2727 19.2727L18.3636 18.3636M19.2727 4.72727L18.3636 5.63636M4.72727 19.2727L5.63636 18.3636M4.72727 4.72727L5.63636 5.63636M2 12H2.90909M12 17.4545C13.4466 17.4545 14.834 16.8799 15.8569 15.8569C16.8799 14.834 17.4545 13.4466 17.4545 12C17.4545 10.5534 16.8799 9.16598 15.8569 8.14305C14.834 7.12013 13.4466 6.54545 12 6.54545C10.5534 6.54545 9.16598 7.12013 8.14305 8.14305C7.12013 9.16598 6.54545 10.5534 6.54545 12C6.54545 13.4466 7.12013 14.834 8.14305 15.8569C9.16598 16.8799 10.5534 17.4545 12 17.4545Z" stroke="white" stroke-width="1.5" stroke-linecap="round" stroke-linejoin="round"/>
</svg>
