<svg width="25" height="24" viewBox="0 0 25 24" fill="none" xmlns="http://www.w3.org/2000/svg">
<g id="vuesax/linear/smart-car">
<g id="smart-car">
<g id="Group">
<path id="Vector" d="M12.64 7.62012H7.37001C5.51001 7.62012 5.09002 8.55013 4.86002 9.70013L4.01001 13.7501H16.01L15.16 9.70013C14.91 8.55013 14.5 7.62012 12.64 7.62012Z" stroke="white" stroke-width="1.5" stroke-linecap="round" stroke-linejoin="round"/>
<g id="Group_2">
<path id="Vector_2" d="M17.49 20.3602C17.57 21.2402 16.87 22.0002 15.97 22.0002H14.56C13.75 22.0002 13.64 21.6502 13.49 21.2302L13.34 20.7803C13.13 20.1703 12.99 19.7502 11.91 19.7502H8.07001C6.99001 19.7502 6.83 20.2203 6.64 20.7803L6.49001 21.2302C6.35001 21.6602 6.24 22.0002 5.42 22.0002H4.00999C3.10999 22.0002 2.40001 21.2402 2.49001 20.3602L2.91 15.7902C3.02 14.6602 3.23 13.7402 5.2 13.7402H14.77C16.74 13.7402 16.95 14.6602 17.06 15.7902L17.49 20.3602Z" stroke="white" stroke-width="1.5" stroke-linecap="round" stroke-linejoin="round"/>
</g>
<path id="Vector_3" d="M4 11.5H3.25" stroke="white" stroke-width="1.5" stroke-linecap="round" stroke-linejoin="round"/>
<path id="Vector_4" d="M16.75 11.5H16" stroke="white" stroke-width="1.5" stroke-linecap="round" stroke-linejoin="round"/>
<path id="Vector_5" d="M5.5 16.75H7.75" stroke="white" stroke-width="1.5" stroke-linecap="round" stroke-linejoin="round"/>
<path id="Vector_6" d="M12.25 16.75H14.5" stroke="white" stroke-width="1.5" stroke-linecap="round" stroke-linejoin="round"/>
</g>
<path id="Vector_7" d="M19.21 8.73992C19.49 8.08992 19.39 7.20993 18.87 6.43993C18.36 5.66993 17.58 5.23993 16.87 5.24993" stroke="white" stroke-width="1.5" stroke-linecap="round" stroke-linejoin="round"/>
<path id="Vector_8" d="M22.32 9.72998C22.74 8.21998 22.44 6.37002 21.37 4.77002C20.3 3.17002 18.7 2.19 17.14 2" stroke="white" stroke-width="1.5" stroke-linecap="round" stroke-linejoin="round"/>
</g>
</g>
</svg>
