<svg width="32" height="33" viewBox="0 0 32 33" fill="none" xmlns="http://www.w3.org/2000/svg">
<path fill-rule="evenodd" clip-rule="evenodd" d="M15.9376 4.19385C16.1938 4.19385 16.7876 4.24385 17.2501 4.3126C17.7126 4.38135 18.3501 4.50635 18.6563 4.59385C18.9626 4.6751 19.4751 4.84385 19.7813 4.96885C20.0876 5.09385 20.5688 5.31885 20.8438 5.46885C21.1188 5.61885 21.5688 5.9001 21.8438 6.09385C22.1188 6.29385 22.5376 6.6251 22.7813 6.84385C23.0251 7.05635 23.4188 7.46885 23.6626 7.75635C23.9063 8.04385 24.2563 8.50635 24.4438 8.78135C24.6251 9.05635 24.9376 9.61885 25.1313 10.0313C25.3313 10.4438 25.5626 11.0188 25.6501 11.3126C25.7376 11.6063 25.8688 12.1313 25.9376 12.4876C26.0063 12.8376 26.0813 13.4688 26.1001 13.8876C26.1251 14.3563 26.1126 14.9251 26.0626 15.3438C26.0251 15.7251 25.9751 16.0688 25.9626 16.1126C25.9501 16.1501 25.9001 16.1876 25.8626 16.1876C25.8188 16.1876 25.6438 16.2251 25.4688 16.2751C25.2751 16.3313 25.0376 16.4688 24.8438 16.6438C24.6688 16.7938 24.4313 17.0688 24.3063 17.2563C24.1813 17.4438 23.7626 18.1126 23.3688 18.7501C22.9813 19.3876 22.5063 20.1438 22.3188 20.4376C22.1313 20.7313 21.8813 21.1813 21.7626 21.4376C21.6438 21.6938 21.4876 22.1563 21.2813 23.0063L20.6251 23.3438C20.2626 23.5251 19.6313 23.7876 19.2188 23.9251C18.8063 24.0626 18.2126 24.2313 17.9063 24.2938C17.4563 24.3813 17.0626 24.4063 15.9688 24.4001C14.7876 24.4001 14.5063 24.3813 13.9688 24.2626C13.6251 24.1813 13.0876 24.0376 12.7813 23.9313C12.4751 23.8313 11.8813 23.5813 10.7188 23.0063L10.6188 22.5501C10.5626 22.3001 10.4376 21.9001 10.3438 21.6563C10.2438 21.4126 10.0501 21.0313 9.9126 20.8063C9.76885 20.5751 9.1751 19.6188 8.59385 18.6813C8.0126 17.7376 7.43135 16.8688 7.3126 16.7501C7.19385 16.6313 6.96885 16.4688 6.8126 16.3938C6.65635 16.3251 6.4251 16.2376 6.29385 16.2126C6.16885 16.1813 6.0501 16.1313 6.0376 16.0938C6.0251 16.0563 5.9751 15.7251 5.9376 15.3438C5.8876 14.9376 5.8751 14.3501 5.89385 13.9063C5.91885 13.4938 5.9876 12.8626 6.0626 12.5001C6.13135 12.1376 6.2626 11.6063 6.3501 11.3126C6.4376 11.0188 6.66885 10.4438 6.86885 10.0313C7.0626 9.61885 7.3751 9.05635 7.55635 8.78135C7.74385 8.50635 8.09385 8.04385 8.3376 7.75635C8.58135 7.46885 9.00635 7.03135 9.28135 6.79385C9.55635 6.55635 9.98135 6.21885 10.2188 6.0501C10.4563 5.88135 10.8813 5.61885 11.1563 5.46885C11.4313 5.31885 11.9126 5.09385 12.2188 4.96885C12.5251 4.84385 13.0501 4.6751 13.3751 4.58135C13.7001 4.49385 14.3063 4.3751 14.7188 4.3126C15.1313 4.2501 15.6813 4.2001 15.9376 4.19385ZM14.1876 7.2876C13.9626 7.34385 13.5438 7.4876 13.2501 7.60635C12.9563 7.7251 12.5501 7.9251 12.3438 8.0501C12.1376 8.16885 11.7438 8.44385 11.4688 8.65635C11.1938 8.86885 10.8313 9.19385 10.6626 9.38135C10.4938 9.56885 10.2188 9.91885 10.0501 10.1563C9.8751 10.3938 9.63135 10.8063 9.5001 11.0626C9.3751 11.3188 9.20635 11.7188 9.13135 11.9501C9.0626 12.1876 9.0126 12.4001 9.03135 12.4376C9.0501 12.4751 9.2126 12.5438 9.39385 12.6001C9.6001 12.6688 9.83135 12.6938 10.0313 12.6751C10.2126 12.6501 10.6688 12.5001 11.1251 12.2938C11.5563 12.1063 12.2126 11.8563 12.5938 11.7313C12.9751 11.6126 13.5063 11.4688 13.7813 11.4126C14.0563 11.3563 14.5376 11.2876 14.8438 11.2501C15.1501 11.2188 15.7501 11.1876 16.1751 11.1876C16.5938 11.1876 17.2563 11.2313 17.6438 11.2813C18.0251 11.3313 18.6688 11.4563 19.0626 11.5563C19.4563 11.6563 20.0501 11.8438 20.3751 11.9751C20.7001 12.1001 21.1251 12.2876 21.3126 12.3813C21.5001 12.4751 21.8376 12.6001 22.0626 12.6501C22.2876 12.7063 22.5688 12.7501 22.6876 12.7501C22.8063 12.7501 22.9501 12.7251 23.0001 12.6876C23.0813 12.6376 23.0813 12.5876 22.9813 12.2376C22.9188 12.0188 22.7501 11.5876 22.6001 11.2813C22.4563 10.9751 22.1876 10.4938 22.0001 10.2188C21.8126 9.94385 21.4188 9.48135 21.1251 9.1876C20.8313 8.89385 20.3688 8.50635 20.0938 8.31885C19.8188 8.1376 19.4001 7.89385 19.1563 7.78135C18.9126 7.66885 18.5438 7.51885 18.3313 7.44385C18.1126 7.36885 17.7313 7.26885 17.4876 7.2126C17.2376 7.15635 16.6501 7.10635 16.1876 7.09385C15.7251 7.08135 15.1751 7.09385 14.9688 7.13135C14.7626 7.1626 14.4126 7.23135 14.1876 7.2876ZM14.9376 13.2938C14.8188 13.3688 14.6126 13.5376 14.4876 13.6813C14.3563 13.8251 14.1876 14.0563 14.1126 14.2063C14.0188 14.3938 13.9688 14.6251 13.9501 15.0001C13.9188 15.4938 13.9313 15.5626 14.1063 15.9376C14.2126 16.1626 14.4063 16.4501 14.5376 16.5813C14.6751 16.7188 14.9251 16.9001 15.0938 16.9876C15.3688 17.1376 15.4813 17.1563 16.0001 17.1563C16.5188 17.1563 16.6313 17.1376 16.9063 16.9876C17.0813 16.9001 17.3251 16.7188 17.4563 16.5813C17.5938 16.4501 17.7751 16.2063 17.8626 16.0313C18.0126 15.7563 18.0313 15.6501 18.0313 15.0938C18.0313 14.5688 18.0126 14.4251 17.8938 14.2063C17.8126 14.0563 17.6313 13.8063 17.4876 13.6501C17.3376 13.4938 17.0626 13.2938 16.8751 13.2001C16.6251 13.0813 16.4063 13.0313 16.0938 13.0188C15.8563 13.0063 15.5438 13.0376 15.4063 13.0813C15.2688 13.1251 15.0563 13.2188 14.9376 13.2938ZM9.34385 16.0438C9.2751 16.0813 9.18135 16.1876 9.1376 16.2876C9.08135 16.3938 9.06885 16.5438 9.09385 16.6563C9.1126 16.7563 9.2501 17.1001 9.4001 17.4063C9.54385 17.7126 9.8126 18.1938 10.0001 18.4688C10.1813 18.7438 10.5751 19.2063 10.8688 19.5001C11.1626 19.7938 11.6751 20.2126 12.0001 20.4251C12.3251 20.6376 12.8001 20.9001 13.0501 21.0001C13.3001 21.1063 13.5626 21.1751 13.6438 21.1563C13.7188 21.1376 13.8438 21.0626 13.9251 20.9813C14.0001 20.9063 14.0688 20.7626 14.0688 20.6563C14.0751 20.5563 14.0188 20.1438 13.9501 19.7501C13.8751 19.3563 13.7751 18.9063 13.7188 18.7501C13.6626 18.5938 13.3001 18.0626 12.9188 17.5626C12.5376 17.0626 12.1063 16.5313 11.9688 16.3813C11.8313 16.2313 11.6063 16.0563 11.4688 15.9938C11.3313 15.9376 11.0938 15.8688 10.9376 15.8563C10.7813 15.8376 10.3876 15.8563 10.0626 15.9001C9.7376 15.9376 9.4126 16.0063 9.34385 16.0438ZM20.4563 16.0251C20.3563 16.0751 20.1813 16.2251 20.0563 16.3563C19.9313 16.4876 19.5126 17.0001 19.1251 17.5001C18.7376 18.0001 18.3813 18.5063 18.3251 18.6251C18.2751 18.7438 18.1626 19.1813 18.0813 19.5938C18.0001 20.0063 17.9313 20.4563 17.9313 20.5938C17.9313 20.7751 17.9688 20.8813 18.0751 20.9813C18.1563 21.0626 18.2813 21.1376 18.3563 21.1563C18.4376 21.1751 18.7001 21.1063 18.9501 21.0001C19.2001 20.9001 19.6751 20.6438 20.0001 20.4251C20.3251 20.2126 20.8313 19.8001 21.1313 19.5063C21.4251 19.2126 21.8126 18.7438 22.0001 18.4688C22.1876 18.1938 22.4563 17.7126 22.6063 17.4063C22.7501 17.1001 22.8876 16.7563 22.9126 16.6563C22.9376 16.5376 22.9126 16.3938 22.8501 16.2688C22.7813 16.1313 22.6813 16.0438 22.5438 16.0063C22.4376 15.9751 22.1751 15.9313 21.9688 15.9063C21.7626 15.8876 21.4813 15.8563 21.3438 15.8438C21.2063 15.8313 20.9876 15.8438 20.8563 15.8813C20.7313 15.9126 20.5501 15.9751 20.4501 16.0251H20.4563ZM4.89385 14.3813C4.9876 14.3751 5.00635 14.4688 5.03135 15.0813C5.05635 15.4626 5.0876 15.9063 5.10635 16.0626C5.1376 16.3376 5.1376 16.3438 4.86885 16.5063C4.71885 16.6001 4.51885 16.7813 4.41885 16.9126C4.3126 17.0501 4.1751 17.2813 4.1126 17.4376C4.03135 17.6188 3.9876 17.8626 3.9876 18.1251C3.9876 18.4626 4.0626 18.7626 4.43135 19.8751C4.6751 20.6126 4.9001 21.3376 4.9376 21.4876C4.9751 21.6376 5.06885 21.7938 5.14385 21.8438C5.24385 21.9126 5.34385 21.9251 5.46885 21.8938C5.56885 21.8626 5.69385 21.7751 5.7501 21.6876C5.8126 21.5813 5.83135 21.4438 5.80635 21.2501C5.7876 21.0938 5.5626 20.3626 5.31885 19.6251C4.9501 18.5313 4.8751 18.2376 4.90635 18.0313C4.9251 17.8938 5.00635 17.6813 5.0876 17.5626C5.16885 17.4438 5.3376 17.2938 5.4626 17.2376C5.5876 17.1751 5.81885 17.1251 5.9751 17.1251C6.13135 17.1251 6.33135 17.1626 6.4251 17.2126C6.5251 17.2626 6.65635 17.3688 6.73135 17.4501C6.8001 17.5251 7.29385 18.3001 7.81885 19.1563C8.3501 20.0188 8.9001 20.8876 9.0376 21.0938C9.18135 21.3001 9.38135 21.6813 9.4876 21.9376C9.59385 22.1938 9.71885 22.6001 9.7626 22.8438C9.80635 23.1126 9.81885 23.4626 9.79385 23.7501C9.76885 24.0063 9.68135 24.4751 9.6001 24.7813C9.51885 25.0876 9.33135 25.6376 9.19385 26.0001C9.0501 26.3626 8.8751 26.8126 8.80635 27.0001C8.69385 27.2813 8.66885 27.4813 8.6626 28.8313L8.1626 28.7876C7.8876 28.7688 6.7751 28.7313 5.69385 28.7126C4.6126 28.6938 3.6376 28.6501 3.5376 28.6251C3.4251 28.5876 3.31885 28.5001 3.26885 28.3938C3.19385 28.2376 3.2126 28.1376 3.4751 27.3126C3.68135 26.6626 3.7751 26.2626 3.8001 25.9063C3.81885 25.5813 3.8001 25.2501 3.7376 24.9688C3.68135 24.7126 3.35635 23.8688 2.94385 22.9376C2.5626 22.0626 2.19385 21.1501 2.1251 20.9063C2.05635 20.6501 2.00635 20.2751 2.00635 20.0001C2.00635 19.7438 2.0626 19.3063 2.13135 19.0313C2.2001 18.7563 2.4501 17.8813 2.6876 17.0938C3.0126 16.0376 3.18135 15.5813 3.33135 15.3626C3.44385 15.2001 3.6376 14.9876 3.75635 14.8938C3.8751 14.8001 4.15635 14.6438 4.38135 14.5501C4.60635 14.4626 4.8376 14.3813 4.89385 14.3813ZM27.1063 14.3751C27.1563 14.3751 27.4001 14.4563 27.6501 14.5563C27.9188 14.6688 28.2063 14.8438 28.3688 14.9938C28.5126 15.1376 28.7001 15.3688 28.7813 15.5188C28.8626 15.6626 29.1313 16.4438 29.3688 17.2501C29.6126 18.0563 29.8501 18.8876 29.9063 19.0938C29.9626 19.3001 30.0063 19.6813 30.0063 19.9376C30.0063 20.2001 29.9563 20.6126 29.8876 20.8751C29.8188 21.1313 29.4501 22.0626 29.0688 22.9376C28.6563 23.8751 28.3313 24.7126 28.2751 24.9688C28.2126 25.2501 28.1938 25.5813 28.2126 25.9063C28.2376 26.2626 28.3251 26.6501 28.5313 27.2813C28.6876 27.7626 28.8188 28.2063 28.8188 28.2688C28.8188 28.3251 28.7688 28.4251 28.7126 28.4876C28.6063 28.5938 28.4001 28.6063 26.1938 28.6501C24.8688 28.6751 23.6813 28.7126 23.3188 28.7813L23.3626 28.2501C23.3876 27.9063 23.3751 27.6063 23.3251 27.4063C23.2813 27.2376 23.1001 26.7001 22.9126 26.2188C22.7313 25.7376 22.5063 25.1063 22.4126 24.8126C22.3126 24.5001 22.2313 24.0626 22.2126 23.7501C22.1876 23.3751 22.2126 23.0876 22.2813 22.7813C22.3376 22.5376 22.4438 22.1876 22.5188 22.0001C22.5938 21.8126 22.7563 21.4876 22.8813 21.2813C23.0126 21.0751 23.5813 20.1501 24.1563 19.2188C24.8001 18.1688 25.2813 17.4626 25.4188 17.3438C25.6063 17.1876 25.7126 17.1501 26.0251 17.1376C26.3501 17.1188 26.4501 17.1376 26.6251 17.2626C26.7438 17.3376 26.8938 17.4751 26.9563 17.5626C27.0251 17.6501 27.0938 17.8438 27.1126 18.0001C27.1438 18.2376 27.0751 18.5063 26.6688 19.7188C26.4126 20.5063 26.1938 21.2563 26.1938 21.3751C26.1938 21.4938 26.2313 21.6501 26.2751 21.7188C26.3251 21.7876 26.4438 21.8626 26.5438 21.8938C26.6688 21.9251 26.7688 21.9126 26.8688 21.8438C26.9438 21.7938 27.0376 21.6313 27.0751 21.4876C27.1126 21.3376 27.3438 20.6126 27.5876 19.8751C27.9438 18.7751 28.0251 18.4563 28.0251 18.1251C28.0251 17.8563 27.9813 17.6251 27.9063 17.4376C27.8376 17.2813 27.7001 17.0501 27.5938 16.9126C27.4938 16.7813 27.2938 16.6001 27.1438 16.5063C26.8751 16.3438 26.8751 16.3376 26.9063 16.0626C26.9251 15.9063 26.9626 15.4626 26.9813 15.0813C27.0126 14.5501 27.0438 14.3751 27.1063 14.3751ZM15.9938 13.9376C16.2001 13.9376 16.4126 13.9813 16.5688 14.0626C16.7063 14.1313 16.8876 14.2938 16.9751 14.4251C17.0626 14.5501 17.1501 14.8001 17.1688 14.9688C17.2001 15.2126 17.1813 15.3438 17.0751 15.5813C16.9876 15.7688 16.8501 15.9438 16.6813 16.0626C16.5313 16.1688 16.3126 16.2688 16.1938 16.2876C16.0751 16.3063 15.8563 16.2938 15.7126 16.2563C15.5626 16.2188 15.3438 16.0938 15.2188 15.9876C15.1001 15.8751 14.9563 15.6563 14.9001 15.5001C14.8313 15.3063 14.8126 15.1313 14.8438 14.9376C14.8626 14.7813 14.9563 14.5501 15.0438 14.4251C15.1376 14.2938 15.3126 14.1376 15.4376 14.0688C15.5751 13.9876 15.7876 13.9438 15.9938 13.9376Z" fill="#FCFCFD"/>
</svg>
