<svg width="33" height="33" viewBox="0 0 33 33" fill="none" xmlns="http://www.w3.org/2000/svg">
<g clip-path="url(#clip0_27_5662)">
<path d="M11.0002 11.1665H8.3335V20.4998C8.3335 21.9665 9.5335 23.1665 11.0002 23.1665H23.0002V20.4998H11.0002V11.1665Z" fill="#D0D5DD"/>
<path d="M26.9998 4.5H16.3332C14.8665 4.5 13.6665 5.7 13.6665 7.16667V15.1667C13.6665 16.6333 14.8665 17.8333 16.3332 17.8333H26.9998C28.4665 17.8333 29.6665 16.6333 29.6665 15.1667V7.16667C29.6665 5.7 28.4665 4.5 26.9998 4.5ZM26.9998 15.1667H16.3332V9.83333H26.9998V15.1667Z" fill="#D0D5DD"/>
<path d="M5.66667 16.5H3V25.8333C3 27.3 4.2 28.5 5.66667 28.5H17.6667V25.8333H5.66667V16.5Z" fill="#D0D5DD"/>
</g>
<defs>
<clipPath id="clip0_27_5662">
<rect width="32" height="32" fill="white" transform="translate(0.333496 0.5)"/>
</clipPath>
</defs>
</svg>
