<svg width="15" height="18" viewBox="0 0 15 18" fill="none" xmlns="http://www.w3.org/2000/svg">
<g id="Group 81">
<path id="Vector" d="M9.75 7.4375C9.75 8.10054 9.48661 8.73643 9.01777 9.20527C8.54893 9.67411 7.91304 9.9375 7.25 9.9375C6.58696 9.9375 5.95107 9.67411 5.48223 9.20527C5.01339 8.73643 4.75 8.10054 4.75 7.4375C4.75 6.77446 5.01339 6.13857 5.48223 5.66973C5.95107 5.20089 6.58696 4.9375 7.25 4.9375C7.91304 4.9375 8.54893 5.20089 9.01777 5.66973C9.48661 6.13857 9.75 6.77446 9.75 7.4375Z" stroke="#667085" stroke-width="1.5" stroke-linecap="round" stroke-linejoin="round"/>
<path id="Vector_2" d="M13.5 7.4375C13.5 13.3892 7.25 16.8125 7.25 16.8125C7.25 16.8125 1 13.3892 1 7.4375C1 5.7799 1.65848 4.19018 2.83058 3.01808C4.00268 1.84598 5.5924 1.1875 7.25 1.1875C8.9076 1.1875 10.4973 1.84598 11.6694 3.01808C12.8415 4.19018 13.5 5.7799 13.5 7.4375Z" stroke="#667085" stroke-width="1.5" stroke-linecap="round" stroke-linejoin="round"/>
</g>
</svg>
