<svg width="62" height="62" viewBox="0 0 62 62" fill="none" xmlns="http://www.w3.org/2000/svg">
<path d="M15.4987 56.8335C14.0779 56.8335 12.862 56.328 11.851 55.3171C10.8401 54.3061 10.3338 53.0894 10.332 51.6668V25.8335C10.332 24.4127 10.8384 23.1968 11.851 22.1858C12.8637 21.1749 14.0796 20.6686 15.4987 20.6668H18.082V15.5002C18.082 11.9266 19.3418 8.8808 21.8614 6.36292C24.3811 3.84503 27.4268 2.58522 30.9987 2.5835C34.5706 2.58178 37.6172 3.84158 40.1385 6.36292C42.6599 8.88425 43.9188 11.93 43.9154 15.5002V20.6668H46.4987C47.9195 20.6668 49.1363 21.1732 50.149 22.1858C51.1616 23.1985 51.6671 24.4144 51.6654 25.8335V51.6668C51.6654 53.0877 51.1599 54.3044 50.149 55.3171C49.138 56.3298 47.9213 56.8352 46.4987 56.8335H15.4987ZM30.9987 43.9168C32.4195 43.9168 33.6363 43.4114 34.649 42.4004C35.6616 41.3895 36.1671 40.1727 36.1654 38.7502C36.1636 37.3276 35.6582 36.1117 34.649 35.1025C33.6397 34.0933 32.423 33.5869 30.9987 33.5835C29.5744 33.5801 28.3585 34.0864 27.351 35.1025C26.3435 36.1186 25.8372 37.3345 25.832 38.7502C25.8269 40.1658 26.3332 41.3826 27.351 42.4004C28.3689 43.4183 29.5848 43.9237 30.9987 43.9168ZM23.2487 20.6668H38.7487V15.5002C38.7487 13.3474 37.9952 11.5175 36.4883 10.0106C34.9813 8.50364 33.1515 7.75016 30.9987 7.75016C28.8459 7.75016 27.0161 8.50364 25.5091 10.0106C24.0022 11.5175 23.2487 13.3474 23.2487 15.5002V20.6668Z" fill="#344054"/>
</svg>
