<svg width="24" height="24" viewBox="0 0 24 24" fill="none" xmlns="http://www.w3.org/2000/svg">
<path d="M22.3371 2.463C23.3124 3.43767 23.8001 4.61667 23.8001 6H21.8001C21.8001 5.16667 21.5084 4.45833 20.9251 3.875C20.3418 3.29167 19.6334 3 18.8001 3C17.9668 3 17.2584 3.29167 16.6751 3.875C16.0918 4.45833 15.8001 5.16667 15.8001 6V8H13.8001V6C13.7988 4.618 14.2861 3.439 15.2621 2.463C16.2381 1.487 17.4174 0.999334 18.8001 1C20.1828 1.00067 21.3618 1.48833 22.3371 2.463Z" fill="white"/>
<path fill-rule="evenodd" clip-rule="evenodd" d="M4.588 21.413C4.97933 21.8043 5.45 22 6 22H18C18.5507 22.0007 19.0217 21.805 19.413 21.413C19.8043 21.021 20 20.55 20 20V10C20.0007 9.45067 19.805 8.98 19.413 8.588C19.021 8.196 18.55 8 18 8H13.8001H15.8001H9H7H6C5.45067 8.00067 4.98 8.19667 4.588 8.588C4.196 8.97933 4 9.45 4 10V20C4.00067 20.5507 4.19667 21.0217 4.588 21.413ZM13.413 16.413C13.021 16.8043 12.55 17 12 17C11.4527 17.0027 10.982 16.807 10.588 16.413C10.194 16.019 9.998 15.548 10 15C10.002 14.452 10.198 13.9813 10.588 13.588C10.978 13.1947 11.4487 12.9987 12 13C12.5513 13.0013 13.0223 13.1973 13.413 13.588C13.8037 13.9787 13.9993 14.4493 14 15C14.0007 15.5507 13.805 16.0217 13.413 16.413Z" fill="white"/>
<path d="M23.8001 6H21.8001V7.19999H23.8001V6Z" fill="white"/>
</svg>
