<svg width="25" height="25" viewBox="0 0 25 25" fill="none" xmlns="http://www.w3.org/2000/svg">
<g id="Frame">
<path id="Vector" d="M18.482 19.2249C17.7833 18.2998 16.8793 17.5496 15.8412 17.0333C14.8031 16.5171 13.6594 16.2489 12.5 16.2499C11.3407 16.2489 10.1969 16.5171 9.15883 17.0333C8.12077 17.5496 7.21675 18.2998 6.51801 19.2249M18.482 19.2249C19.8455 18.0121 20.8071 16.4135 21.2412 14.641C21.6753 12.8686 21.5603 11.006 20.9115 9.30043C20.2627 7.59482 19.1107 6.12673 17.6084 5.09085C16.1061 4.05497 14.3244 3.50024 12.4995 3.50024C10.6747 3.50024 8.89295 4.05497 7.39062 5.09085C5.88829 6.12673 4.73634 7.59482 4.08755 9.30043C3.43875 11.006 3.32376 12.8686 3.75783 14.641C4.1919 16.4135 5.15451 18.0121 6.51801 19.2249M18.482 19.2249C16.836 20.6931 14.7056 21.5031 12.5 21.4999C10.294 21.5033 8.16425 20.6934 6.51801 19.2249M15.5 10.2499C15.5 11.0456 15.1839 11.8087 14.6213 12.3713C14.0587 12.9339 13.2957 13.2499 12.5 13.2499C11.7044 13.2499 10.9413 12.9339 10.3787 12.3713C9.81608 11.8087 9.50001 11.0456 9.50001 10.2499C9.50001 9.4543 9.81608 8.69124 10.3787 8.12863C10.9413 7.56602 11.7044 7.24995 12.5 7.24995C13.2957 7.24995 14.0587 7.56602 14.6213 8.12863C15.1839 8.69124 15.5 9.4543 15.5 10.2499Z" stroke="black" stroke-width="1.5" stroke-linecap="round" stroke-linejoin="round"/>
</g>
</svg>
