<svg width="37" height="37" viewBox="0 0 37 37" fill="none" xmlns="http://www.w3.org/2000/svg">
<path d="M22.8245 8.79689C26.9735 10.5553 29.8907 14.6683 29.8907 19.4844C29.8907 25.8474 24.6875 31.0865 18.2885 31.0865C11.9255 31.0865 6.6864 25.8485 6.6864 19.4844C6.6864 14.6683 9.60465 10.5541 13.7885 8.79689V12.6995C11.6083 14.1766 10.1323 16.637 10.1323 19.4844C10.1323 23.9844 13.7885 27.6406 18.2885 27.6406C22.7885 27.6406 26.4448 23.9844 26.4448 19.4844C26.4448 16.637 25.0037 14.1755 22.8234 12.6995L22.8245 8.79689ZM20.2224 19.4146V5.87976H16.3547V19.4146H20.2224Z" fill="white"/>
</svg>
