<svg width="410" height="87" viewBox="0 0 410 87" fill="none" xmlns="http://www.w3.org/2000/svg">
<g filter="url(#filter0_d_50_317)">
<rect x="8" y="6" width="390" height="67" rx="12" fill="#F79009"/>
</g>
<path d="M8 18C8 11.3726 13.3726 6 20 6H186.218H225.868C227.214 6 228.551 6.2266 229.823 6.67032L262.844 18.1962C264.052 18.6179 264.638 19.9855 264.11 21.151V21.151C257.557 35.6044 265.503 52.4886 280.816 56.6522L308.669 64.2252C312.869 65.3674 312.846 71.3342 308.637 72.4439L307.114 72.8455C306.725 72.9481 306.324 73 305.922 73H20C13.3726 73 8 67.6274 8 61V18Z" fill="#D9D9D9" fill-opacity="0.1"/>
<defs>
<filter id="filter0_d_50_317" x="0" y="0" width="410" height="87" filterUnits="userSpaceOnUse" color-interpolation-filters="sRGB">
<feFlood flood-opacity="0" result="BackgroundImageFix"/>
<feColorMatrix in="SourceAlpha" type="matrix" values="0 0 0 0 0 0 0 0 0 0 0 0 0 0 0 0 0 0 127 0" result="hardAlpha"/>
<feOffset dx="2" dy="4"/>
<feGaussianBlur stdDeviation="5"/>
<feComposite in2="hardAlpha" operator="out"/>
<feColorMatrix type="matrix" values="0 0 0 0 0 0 0 0 0 0 0 0 0 0 0 0 0 0 0.15 0"/>
<feBlend mode="normal" in2="BackgroundImageFix" result="effect1_dropShadow_50_317"/>
<feBlend mode="normal" in="SourceGraphic" in2="effect1_dropShadow_50_317" result="shape"/>
</filter>
</defs>
</svg>
