<svg width="33" height="33" viewBox="0 0 33 33" fill="none" xmlns="http://www.w3.org/2000/svg">
<path d="M6.14933 4.63401C5.65382 4.6705 5.19066 4.89382 4.85353 5.2588C4.5164 5.62377 4.33047 6.10316 4.33333 6.60001V16.5H16.3333V6.60001C16.3362 6.10316 16.1503 5.62377 15.8131 5.2588C15.476 4.89382 15.0128 4.6705 14.5173 4.63401C11.7309 4.45427 8.93577 4.45427 6.14933 4.63401ZM26.1713 9.94401C26.0577 9.52741 25.8096 9.16002 25.4656 8.8989C25.1217 8.63778 24.7012 8.49755 24.2693 8.50001H20.3333C19.8029 8.50001 19.2942 8.71072 18.9191 9.08579C18.544 9.46087 18.3333 9.96957 18.3333 10.5V23.036C18.9414 22.6849 19.6312 22.5001 20.3333 22.5001C21.0354 22.5001 21.7252 22.6849 22.3333 23.036C22.9414 23.387 23.4463 23.892 23.7974 24.5C24.1485 25.1081 24.3333 25.7979 24.3333 26.5H26.3333C26.5952 26.5022 26.8548 26.4518 27.0968 26.3517C27.3388 26.2516 27.5582 26.1038 27.742 25.9173C27.9257 25.7307 28.0701 25.5091 28.1666 25.2656C28.263 25.0222 28.3095 24.7618 28.3033 24.5C28.1545 19.5822 27.4391 14.6979 26.1713 9.94401Z" fill="white"/>
<path d="M22.3333 26.5C22.3333 27.0304 22.1226 27.5391 21.7475 27.9142C21.3725 28.2893 20.8638 28.5 20.3333 28.5C19.8029 28.5 19.2942 28.2893 18.9191 27.9142C18.544 27.5391 18.3333 27.0304 18.3333 26.5C18.3333 25.9696 18.544 25.4609 18.9191 25.0858C19.2942 24.7107 19.8029 24.5 20.3333 24.5C20.8638 24.5 21.3725 24.7107 21.7475 25.0858C22.1226 25.4609 22.3333 25.9696 22.3333 26.5ZM4.33333 24.5V18.5H16.3333V24.5C16.3333 25.0304 16.1226 25.5391 15.7475 25.9142C15.3725 26.2893 14.8638 26.5 14.3333 26.5C14.3333 25.4391 13.9119 24.4217 13.1618 23.6716C12.4116 22.9214 11.3942 22.5 10.3333 22.5C9.27246 22.5 8.25505 22.9214 7.5049 23.6716C6.75476 24.4217 6.33333 25.4391 6.33333 26.5C5.8029 26.5 5.29419 26.2893 4.91911 25.9142C4.54404 25.5391 4.33333 25.0304 4.33333 24.5Z" fill="white"/>
<path d="M12.3333 26.5C12.3333 27.0304 12.1226 27.5391 11.7475 27.9142C11.3725 28.2893 10.8638 28.5 10.3333 28.5C9.8029 28.5 9.29419 28.2893 8.91912 27.9142C8.54404 27.5391 8.33333 27.0304 8.33333 26.5C8.33333 25.9696 8.54404 25.4609 8.91912 25.0858C9.29419 24.7107 9.8029 24.5 10.3333 24.5C10.8638 24.5 11.3725 24.7107 11.7475 25.0858C12.1226 25.4609 12.3333 25.9696 12.3333 26.5Z" fill="white"/>
</svg>
