<svg width="36" height="37" viewBox="0 0 36 37" fill="none" xmlns="http://www.w3.org/2000/svg">
<path d="M10.5 33.5C9.675 33.5 8.969 33.2065 8.382 32.6195C7.795 32.0325 7.501 31.326 7.5 30.5V18.5C7.5 16.375 8.0565 14.475 9.1695 12.8C10.2825 11.125 11.726 9.875 13.5 9.05V8C13.5 6.75 13.9375 5.6875 14.8125 4.8125C15.6875 3.9375 16.75 3.5 18 3.5C19.25 3.5 20.3125 3.9375 21.1875 4.8125C22.0625 5.6875 22.5 6.75 22.5 8V9.05C24.275 9.875 25.719 11.125 26.832 12.8C27.945 14.475 28.501 16.375 28.5 18.5V30.5C28.5 31.325 28.2065 32.0315 27.6195 32.6195C27.0325 33.2075 26.326 33.501 25.5 33.5H10.5ZM22.5 24.5C22.925 24.5 23.2815 24.356 23.5695 24.068C23.8575 23.78 24.001 23.424 24 23V18.5H12V21.5H21V23C21 23.425 21.144 23.7815 21.432 24.0695C21.72 24.3575 22.076 24.501 22.5 24.5ZM16.5 8.15C16.775 8.1 17.025 8.0625 17.25 8.0375C17.475 8.0125 17.725 8 18 8C18.275 8 18.525 8.0125 18.75 8.0375C18.975 8.0625 19.225 8.1 19.5 8.15V8C19.5 7.575 19.356 7.219 19.068 6.932C18.78 6.645 18.424 6.501 18 6.5C17.576 6.499 17.22 6.643 16.932 6.932C16.644 7.221 16.5 7.577 16.5 8V8.15Z" fill="#98A2B3"/>
</svg>
