<svg width="33" height="33" viewBox="0 0 33 33" fill="none" xmlns="http://www.w3.org/2000/svg">
<path d="M16.261 3.2248C16.1235 3.2748 15.9297 3.38105 15.8235 3.4623C15.7172 3.5373 15.5735 3.7248 15.4985 3.88105L15.3547 4.15605L15.386 15.7311C15.6485 16.1061 15.8547 16.2936 16.0235 16.3873C16.2485 16.5186 16.411 16.5561 16.6672 16.5561C16.9235 16.5561 17.086 16.5186 17.311 16.3873C17.4797 16.2936 17.686 16.1061 17.7797 15.9686L17.9485 15.7186C17.9797 6.3998 17.961 4.1998 17.9235 4.0623C17.8922 3.94355 17.7422 3.7248 17.5922 3.5748C17.436 3.41855 17.2047 3.26855 17.0422 3.2123C16.886 3.1623 16.7047 3.1248 16.636 3.13105C16.5672 3.13105 16.3985 3.1748 16.261 3.2248ZM8.54221 5.95605C8.38596 5.9998 8.17971 6.09355 8.07346 6.16855C7.96721 6.2373 7.56096 6.63105 7.16721 7.0373C6.76721 7.4498 6.27971 8.00605 6.07346 8.28105C5.86721 8.55605 5.53596 9.0498 5.32971 9.3748C5.12346 9.6998 4.82346 10.2498 4.66096 10.5936C4.49221 10.9373 4.26096 11.4998 4.13596 11.8436C4.01096 12.1873 3.82346 12.8061 3.72346 13.2186C3.62971 13.6311 3.50471 14.2998 3.44846 14.7061C3.39846 15.1061 3.33596 15.7123 3.31721 16.0498C3.29221 16.4498 3.31096 16.9623 3.37971 17.5623C3.44221 18.0623 3.55471 18.7936 3.62971 19.1873C3.71096 19.5811 3.89221 20.2561 4.03596 20.6873C4.17971 21.1186 4.47346 21.8373 4.69221 22.2811C4.91096 22.7248 5.28596 23.3873 5.52346 23.7498C5.76096 24.1123 6.12971 24.6186 6.33596 24.8748C6.54846 25.1311 7.00471 25.6311 7.36096 25.9811C7.71721 26.3311 8.17971 26.7498 8.38596 26.9186C8.59221 27.0811 9.02971 27.3936 9.35471 27.6123C9.67971 27.8311 10.286 28.1811 10.6985 28.3873C11.111 28.5998 11.7297 28.8748 12.0735 29.0061C12.4172 29.1311 13.0485 29.3248 13.4797 29.4311C13.911 29.5373 14.711 29.6811 15.261 29.7498C15.811 29.8186 16.436 29.8748 16.6547 29.8748C16.8672 29.8748 17.4172 29.8311 17.8735 29.7811C18.3235 29.7248 18.9672 29.6248 19.2922 29.5623C19.6172 29.4936 20.1422 29.3686 20.4485 29.2811C20.7547 29.1873 21.3485 28.9748 21.761 28.8061C22.1735 28.6373 22.8047 28.3311 23.1672 28.1186C23.5297 27.9123 24.0797 27.5623 24.386 27.3436C24.6922 27.1186 25.211 26.7061 25.5297 26.4248C25.8485 26.1373 26.3235 25.6561 26.5922 25.3498C26.8547 25.0436 27.2297 24.5811 27.4235 24.3186C27.611 24.0561 27.9172 23.6061 28.0922 23.3123C28.2672 23.0186 28.5547 22.4748 28.736 22.0936C28.911 21.7123 29.1735 21.0686 29.3047 20.6561C29.4422 20.2436 29.6235 19.5811 29.7047 19.1873C29.786 18.7936 29.8985 18.0498 29.9547 17.5311C30.0172 16.9498 30.0422 16.3811 30.0172 16.0311C29.9985 15.7248 29.9422 15.1311 29.886 14.7186C29.8297 14.3061 29.7172 13.6748 29.6297 13.3123C29.5485 12.9498 29.3735 12.3623 29.2547 11.9998C29.1297 11.6373 28.8547 10.9811 28.636 10.5311C28.4172 10.0873 28.0672 9.4498 27.8547 9.1248C27.6422 8.7998 27.2735 8.29355 27.0422 7.9998C26.811 7.70605 26.2985 7.15605 25.911 6.78105C25.5172 6.3998 25.086 6.0373 24.9485 5.9748C24.7672 5.8873 24.5922 5.8623 24.311 5.88105C24.011 5.8998 23.8735 5.94355 23.661 6.09355C23.511 6.1998 23.3297 6.40605 23.2485 6.5623C23.1485 6.75605 23.1047 6.9498 23.1047 7.1873C23.1047 7.4123 23.1485 7.61855 23.2297 7.78105C23.3047 7.91855 23.6047 8.25605 23.9047 8.5373C24.2047 8.8123 24.6297 9.2623 24.8485 9.5373C25.0672 9.80605 25.3922 10.2436 25.561 10.4998C25.736 10.7561 26.0235 11.2623 26.2047 11.6248C26.386 11.9873 26.6172 12.5186 26.7172 12.8123C26.8172 13.1061 26.9735 13.6686 27.0672 14.0623C27.1547 14.4561 27.2547 15.1623 27.2922 15.6248C27.3422 16.2248 27.3422 16.6936 27.2922 17.2498C27.2547 17.6811 27.1672 18.2998 27.0985 18.6248C27.036 18.9498 26.8922 19.4873 26.786 19.8123C26.6735 20.1373 26.4485 20.6998 26.2797 21.0623C26.111 21.4248 25.7672 22.0248 25.511 22.4061C25.261 22.7873 24.861 23.3061 24.6235 23.5686C24.3922 23.8248 24.0297 24.1936 23.8235 24.3811C23.6172 24.5686 23.2797 24.8498 23.0735 25.0061C22.8672 25.1686 22.5047 25.4186 22.261 25.5623C22.0172 25.7123 21.5422 25.9686 21.1985 26.1311C20.8547 26.2936 20.3047 26.5186 19.9797 26.6248C19.6547 26.7311 19.1047 26.8811 18.761 26.9561C18.2235 27.0686 17.936 27.0873 16.6985 27.0936C15.4172 27.0936 15.186 27.0748 14.5735 26.9436C14.1922 26.8623 13.6297 26.7123 13.3235 26.6123C13.0172 26.5061 12.4547 26.2748 12.0735 26.0936C11.6922 25.9123 11.0922 25.5686 10.7297 25.3248C10.3672 25.0873 9.77971 24.6123 9.42346 24.2748C9.06721 23.9311 8.61096 23.4623 8.41721 23.2186C8.22346 22.9748 7.91096 22.5561 7.72971 22.2811C7.55471 22.0061 7.26721 21.4998 7.09846 21.1561C6.93596 20.8123 6.69846 20.2373 6.57971 19.8748C6.45471 19.5123 6.30471 18.9498 6.23596 18.6248C6.16721 18.2998 6.08596 17.6811 6.04846 17.2498C6.00471 16.7373 6.00471 16.1998 6.04221 15.6873C6.07346 15.2561 6.15471 14.6123 6.22971 14.2498C6.30471 13.8873 6.46096 13.2998 6.57971 12.9373C6.70471 12.5748 6.98596 11.9311 7.20471 11.4998C7.42971 11.0686 7.79846 10.4498 8.02971 10.1248C8.26096 9.7998 8.79846 9.18105 9.22346 8.7498C9.66096 8.3123 10.0422 7.8748 10.0922 7.7498C10.1422 7.63105 10.1797 7.39355 10.1797 7.21855C10.1797 7.03105 10.1297 6.80605 10.0547 6.65605C9.98596 6.51855 9.86096 6.34355 9.77971 6.2748C9.70471 6.1998 9.55471 6.0998 9.44846 6.0498C9.34221 5.99355 9.16096 5.9373 9.04221 5.91855C8.92346 5.8998 8.69846 5.91855 8.54221 5.95605Z" fill="#D0D5DD"/>
</svg>
