<svg width="22" height="22" viewBox="0 0 22 22" fill="none" xmlns="http://www.w3.org/2000/svg">
<path d="M7.5625 9.16667C7.38016 9.16667 7.2053 9.2391 7.07636 9.36803C6.94743 9.49696 6.875 9.67183 6.875 9.85417C6.875 10.0365 6.94743 10.2114 7.07636 10.3403C7.2053 10.4692 7.38016 10.5417 7.5625 10.5417C7.74484 10.5417 7.9197 10.4692 8.04864 10.3403C8.17757 10.2114 8.25 10.0365 8.25 9.85417C8.25 9.67183 8.17757 9.49696 8.04864 9.36803C7.9197 9.2391 7.74484 9.16667 7.5625 9.16667ZM6.875 14.8958C6.875 14.7135 6.94743 14.5386 7.07636 14.4097C7.2053 14.2808 7.38016 14.2083 7.5625 14.2083C7.74484 14.2083 7.9197 14.2808 8.04864 14.4097C8.17757 14.5386 8.25 14.7135 8.25 14.8958C8.25 15.0782 8.17757 15.253 8.04864 15.382C7.9197 15.5109 7.74484 15.5833 7.5625 15.5833C7.38016 15.5833 7.2053 15.5109 7.07636 15.382C6.94743 15.253 6.875 15.0782 6.875 14.8958ZM2.75 5.72917C2.75 4.93904 3.06388 4.18128 3.62258 3.62258C4.18128 3.06388 4.93904 2.75 5.72917 2.75H16.2708C17.061 2.75 17.8187 3.06388 18.3774 3.62258C18.9361 4.18128 19.25 4.93904 19.25 5.72917V16.2708C19.25 17.061 18.9361 17.8187 18.3774 18.3774C17.8187 18.9361 17.061 19.25 16.2708 19.25H5.72917C4.93904 19.25 4.18128 18.9361 3.62258 18.3774C3.06388 17.8187 2.75 17.061 2.75 16.2708V5.72917ZM5.5 9.85417C5.5 10.125 5.55335 10.3932 5.657 10.6435C5.76065 10.8937 5.91257 11.1211 6.10409 11.3126C6.29561 11.5041 6.52298 11.656 6.77322 11.7597C7.02345 11.8633 7.29165 11.9167 7.5625 11.9167C7.83335 11.9167 8.10155 11.8633 8.35179 11.7597C8.60202 11.656 8.82939 11.5041 9.02091 11.3126C9.21243 11.1211 9.36435 10.8937 9.468 10.6435C9.57165 10.3932 9.625 10.125 9.625 9.85417C9.625 9.30716 9.4077 8.78255 9.02091 8.39576C8.63411 8.00897 8.10951 7.79167 7.5625 7.79167C7.01549 7.79167 6.49089 8.00897 6.10409 8.39576C5.7173 8.78255 5.5 9.30716 5.5 9.85417ZM7.5625 12.8333C7.01549 12.8333 6.49089 13.0506 6.10409 13.4374C5.7173 13.8242 5.5 14.3488 5.5 14.8958C5.5 15.4428 5.7173 15.9674 6.10409 16.3542C6.49089 16.741 7.01549 16.9583 7.5625 16.9583C8.10951 16.9583 8.63411 16.741 9.02091 16.3542C9.4077 15.9674 9.625 15.4428 9.625 14.8958C9.625 14.3488 9.4077 13.8242 9.02091 13.4374C8.63411 13.0506 8.10951 12.8333 7.5625 12.8333ZM11 9.85417C11 10.2337 11.308 10.5417 11.6875 10.5417H15.8125C15.9948 10.5417 16.1697 10.4692 16.2986 10.3403C16.4276 10.2114 16.5 10.0365 16.5 9.85417C16.5 9.67183 16.4276 9.49696 16.2986 9.36803C16.1697 9.2391 15.9948 9.16667 15.8125 9.16667H11.6875C11.5052 9.16667 11.3303 9.2391 11.2014 9.36803C11.0724 9.49696 11 9.67183 11 9.85417ZM11.6875 14.2083C11.5052 14.2083 11.3303 14.2808 11.2014 14.4097C11.0724 14.5386 11 14.7135 11 14.8958C11 15.0782 11.0724 15.253 11.2014 15.382C11.3303 15.5109 11.5052 15.5833 11.6875 15.5833H15.8125C15.9948 15.5833 16.1697 15.5109 16.2986 15.382C16.4276 15.253 16.5 15.0782 16.5 14.8958C16.5 14.7135 16.4276 14.5386 16.2986 14.4097C16.1697 14.2808 15.9948 14.2083 15.8125 14.2083H11.6875ZM5.5 5.72917C5.5 6.10867 5.808 6.41667 6.1875 6.41667H15.8125C15.9948 6.41667 16.1697 6.34423 16.2986 6.2153C16.4276 6.08637 16.5 5.9115 16.5 5.72917C16.5 5.54683 16.4276 5.37196 16.2986 5.24303C16.1697 5.1141 15.9948 5.04167 15.8125 5.04167H6.1875C6.00516 5.04167 5.8303 5.1141 5.70136 5.24303C5.57243 5.37196 5.5 5.54683 5.5 5.72917Z" fill="#667085"/>
</svg>
