<svg width="32" height="33" viewBox="0 0 32 33" fill="none" xmlns="http://www.w3.org/2000/svg">
<path d="M21 10.5H20.4L21.7 9.2C22 8.9 22.1 8.5 21.9 8.1C21.7 7.7 21.4 7.5 21 7.5H18C17.4 7.5 17 7.9 17 8.5C17 9.1 17.4 9.5 18 9.5H18.6L17.3 10.8C17 11.1 16.9 11.5 17.1 11.9C17.3 12.3 17.6 12.5 18 12.5H21C21.6 12.5 22 12.1 22 11.5C22 10.9 21.6 10.5 21 10.5Z" fill="white"/>
<path d="M28 8.5H26.4L28.5 6.2C28.8 5.9 28.8 5.5 28.7 5.1C28.6 4.7 28.2 4.5 27.8 4.5H24C23.4 4.5 23 4.9 23 5.5C23 6.1 23.4 6.5 24 6.5H25.6L23.5 8.8C23.2 9.1 23.2 9.5 23.3 9.9C23.5 10.3 23.8 10.5 24.2 10.5H28C28.6 10.5 29 10.1 29 9.5C29 8.9 28.6 8.5 28 8.5Z" fill="white"/>
<path d="M29.3 12.2C28.9 12.4 28.5 12.5 28 12.5H24.2C24.1 12.5 23.9 12.5 23.8 12.5C23.4 13.7 22.3 14.5 21 14.5H18C16.8 14.5 15.7 13.8 15.2 12.6C14.8 11.7 14.9 10.7 15.4 10C15.1 9.6 15 9 15 8.5C15 6.8 16.3 5.5 18 5.5H21C21 4.8 21.2 4.2 21.6 3.7C21.5 3.6 21.5 3.6 21.4 3.6C19.7 2.9 17.9 2.5 16 2.5C8.29999 2.5 1.99999 8.8 1.99999 16.5C1.99999 24.2 8.29999 30.5 16 30.5C23.7 30.5 30 24.2 30 16.5C30 15 29.8 13.6 29.3 12.2ZM7.69999 18.3C7.29999 17.9 7.19999 17.3 7.59999 16.9C7.99999 16.5 8.59999 16.4 8.99999 16.8C9.39999 17.1 10.1 17.6 11 17.6C11.9 17.6 12.6 17.2 13 16.8C13.4 16.4 14 16.5 14.4 16.9C14.8 17.3 14.7 17.9 14.3 18.3C13.4 19.1 12.2 19.5 11 19.5C9.79999 19.5 8.59999 19.1 7.69999 18.3ZM19 24.5H13C12.4 24.5 12 24.1 12 23.5C12 21.3 13.8 19.5 16 19.5C18.2 19.5 20 21.3 20 23.5C20 24.1 19.6 24.5 19 24.5ZM24.3 18.3C23.4 19.1 22.2 19.5 21 19.5C19.8 19.5 18.6 19.1 17.7 18.3C17.3 17.9 17.2 17.3 17.6 16.9C18 16.5 18.6 16.4 19 16.8C19.4 17.1 20.1 17.6 21 17.6C21.9 17.6 22.6 17.2 23 16.8C23.4 16.4 24 16.5 24.4 16.9C24.7 17.3 24.7 17.9 24.3 18.3Z" fill="white"/>
</svg>
