<svg width="32" height="33" viewBox="0 0 32 33" fill="none" xmlns="http://www.w3.org/2000/svg">
<path d="M29.3332 24.5V21.3573C29.3332 18.6973 29.3332 17.3667 28.9598 16.2987C28.6289 15.3528 28.0891 14.4937 27.3804 13.7853C26.6717 13.0768 25.8125 12.5373 24.8665 12.2067C23.7998 11.8333 22.4692 11.8333 19.8092 11.8333C18.7452 11.8333 18.2132 11.8333 17.7852 11.9827C17.4071 12.115 17.0637 12.3308 16.7805 12.614C16.4973 12.8972 16.2815 13.2406 16.1492 13.6187C15.9998 14.0467 15.9998 14.58 15.9998 15.6427V21.8333" fill="#FCFCFD"/>
<path d="M2.6665 8.5V24.5M29.3332 24.5V21.3573C29.3332 18.6973 29.3332 17.3667 28.9598 16.2987C28.6289 15.3528 28.0891 14.4937 27.3804 13.7853C26.6717 13.0768 25.8125 12.5373 24.8665 12.2067C23.7998 11.8333 22.4692 11.8333 19.8092 11.8333C18.7452 11.8333 18.2132 11.8333 17.7852 11.9827C17.4071 12.115 17.0637 12.3308 16.7805 12.614C16.4973 12.8972 16.2815 13.2406 16.1492 13.6187C15.9998 14.0467 15.9998 14.58 15.9998 15.6427V21.8333M2.6665 21.8333H29.3332" stroke="#FCFCFD" stroke-width="2" stroke-linecap="round" stroke-linejoin="round"/>
<path d="M12.6667 15.1668C12.6667 16.0509 12.3155 16.8987 11.6904 17.5239C11.0652 18.149 10.2174 18.5002 9.33333 18.5002C8.44928 18.5002 7.60143 18.149 6.97631 17.5239C6.35119 16.8987 6 16.0509 6 15.1668C6 14.2828 6.35119 13.4349 6.97631 12.8098C7.60143 12.1847 8.44928 11.8335 9.33333 11.8335C10.2174 11.8335 11.0652 12.1847 11.6904 12.8098C12.3155 13.4349 12.6667 14.2828 12.6667 15.1668Z" fill="#FCFCFD" stroke="#FCFCFD" stroke-width="2"/>
</svg>
