<svg width="16" height="17" viewBox="0 0 16 17" fill="none" xmlns="http://www.w3.org/2000/svg">
<path d="M8.00002 14.5C8.78795 14.5 9.56817 14.3448 10.2961 14.0433C11.0241 13.7418 11.6855 13.2998 12.2427 12.7426C12.7998 12.1855 13.2418 11.5241 13.5433 10.7961C13.8448 10.0682 14 9.28794 14 8.50001C14 7.71207 13.8448 6.93186 13.5433 6.2039C13.2418 5.47595 12.7998 4.81452 12.2427 4.25736C11.6855 3.70021 11.0241 3.25826 10.2961 2.95673C9.56817 2.6552 8.78795 2.50001 8.00002 2.50001C6.40872 2.50001 4.8826 3.13215 3.75738 4.25736C2.63216 5.38258 2.00002 6.90871 2.00002 8.50001C2.00002 10.0913 2.63216 11.6174 3.75738 12.7426C4.8826 13.8679 6.40872 14.5 8.00002 14.5ZM15.3334 8.50001C15.3334 12.55 12.05 15.8333 8.00002 15.8333C3.95002 15.8333 0.666687 12.55 0.666687 8.50001C0.666687 4.45001 3.95002 1.16667 8.00002 1.16667C12.05 1.16667 15.3334 4.45001 15.3334 8.50001ZM10 11.4427L7.33335 8.776V4.16667H8.66669V8.22401L10.9427 10.5L10 11.4427Z" fill="#667085"/>
</svg>
