<svg width="25" height="24" viewBox="0 0 25 24" fill="none" xmlns="http://www.w3.org/2000/svg">
<g id="Frame">
<path id="Vector" d="M8.75002 18.75C8.75002 19.1478 8.59198 19.5293 8.31068 19.8107C8.02937 20.092 7.64784 20.25 7.25002 20.25C6.85219 20.25 6.47066 20.092 6.18936 19.8107C5.90805 19.5293 5.75002 19.1478 5.75002 18.75M8.75002 18.75C8.75002 18.3522 8.59198 17.9706 8.31068 17.6893C8.02937 17.408 7.64784 17.25 7.25002 17.25C6.85219 17.25 6.47066 17.408 6.18936 17.6893C5.90805 17.9706 5.75002 18.3522 5.75002 18.75M8.75002 18.75H14.75M5.75002 18.75H3.87502C3.57665 18.75 3.2905 18.6315 3.07952 18.4205C2.86855 18.2095 2.75002 17.9234 2.75002 17.625V14.25M14.75 18.75H17M14.75 18.75V14.25M2.75002 14.25V6.61499C2.74843 6.34116 2.84848 6.07648 3.03081 5.87217C3.21313 5.66786 3.46477 5.53845 3.73702 5.50899C7.07006 5.16302 10.43 5.16302 13.763 5.50899C14.328 5.56699 14.75 6.04699 14.75 6.61499V7.57299M2.75002 14.25H14.75M20 18.75C20 19.1478 19.842 19.5293 19.5607 19.8107C19.2794 20.092 18.8978 20.25 18.5 20.25C18.1022 20.25 17.7207 20.092 17.4394 19.8107C17.1581 19.5293 17 19.1478 17 18.75M20 18.75C20 18.3522 19.842 17.9706 19.5607 17.6893C19.2794 17.408 18.8978 17.25 18.5 17.25C18.1022 17.25 17.7207 17.408 17.4394 17.6893C17.1581 17.9706 17 18.3522 17 18.75M20 18.75H21.125C21.746 18.75 22.254 18.246 22.215 17.626C22.0141 14.3236 20.9019 11.1416 19.002 8.43299C18.8211 8.17927 18.5848 7.97001 18.3111 7.82102C18.0373 7.67203 17.7333 7.58722 17.422 7.57299H14.75M14.75 7.57299V14.25" stroke="black" stroke-width="1.5" stroke-linecap="round" stroke-linejoin="round"/>
</g>
</svg>
