<svg width="33" height="33" viewBox="0 0 33 33" fill="none" xmlns="http://www.w3.org/2000/svg">
<path d="M6.14953 4.63382C5.65402 4.67032 5.19086 4.89364 4.85373 5.25861C4.5166 5.62359 4.33067 6.10298 4.33353 6.59982V16.4998H16.3335V6.59982C16.3364 6.10298 16.1505 5.62359 15.8133 5.25861C15.4762 4.89364 15.013 4.67032 14.5175 4.63382C11.7311 4.45409 8.93597 4.45409 6.14953 4.63382ZM26.1715 9.94382C26.0578 9.52723 25.8098 9.15983 25.4658 8.89871C25.1219 8.6376 24.7014 8.49737 24.2695 8.49982H20.3335C19.8031 8.49982 19.2944 8.71054 18.9193 9.08561C18.5442 9.46068 18.3335 9.96939 18.3335 10.4998V23.0358C18.9416 22.6848 19.6314 22.4999 20.3335 22.4999C21.0356 22.4999 21.7254 22.6847 22.3335 23.0358C22.9416 23.3869 23.4465 23.8918 23.7976 24.4999C24.1487 25.1079 24.3335 25.7977 24.3335 26.4998H26.3335C26.5954 26.502 26.855 26.4516 27.097 26.3515C27.339 26.2514 27.5584 26.1037 27.7422 25.9171C27.9259 25.7305 28.0703 25.5089 28.1668 25.2655C28.2632 25.022 28.3097 24.7616 28.3035 24.4998C28.1547 19.582 27.4393 14.6977 26.1715 9.94382Z" fill="#D0D5DD"/>
<path d="M22.3335 26.5C22.3335 27.0304 22.1228 27.5391 21.7477 27.9142C21.3726 28.2893 20.8639 28.5 20.3335 28.5C19.8031 28.5 19.2944 28.2893 18.9193 27.9142C18.5442 27.5391 18.3335 27.0304 18.3335 26.5C18.3335 25.9696 18.5442 25.4609 18.9193 25.0858C19.2944 24.7107 19.8031 24.5 20.3335 24.5C20.8639 24.5 21.3726 24.7107 21.7477 25.0858C22.1228 25.4609 22.3335 25.9696 22.3335 26.5ZM4.3335 24.5V18.5H16.3335V24.5C16.3335 25.0304 16.1228 25.5391 15.7477 25.9142C15.3726 26.2893 14.8639 26.5 14.3335 26.5C14.3335 25.4391 13.9121 24.4217 13.1619 23.6716C12.4118 22.9214 11.3944 22.5 10.3335 22.5C9.27263 22.5 8.25521 22.9214 7.50507 23.6716C6.75492 24.4217 6.3335 25.4391 6.3335 26.5C5.80306 26.5 5.29436 26.2893 4.91928 25.9142C4.54421 25.5391 4.3335 25.0304 4.3335 24.5Z" fill="#D0D5DD"/>
<path d="M12.3335 26.5C12.3335 27.0304 12.1228 27.5391 11.7477 27.9142C11.3726 28.2893 10.8639 28.5 10.3335 28.5C9.80306 28.5 9.29436 28.2893 8.91928 27.9142C8.54421 27.5391 8.3335 27.0304 8.3335 26.5C8.3335 25.9696 8.54421 25.4609 8.91928 25.0858C9.29436 24.7107 9.80306 24.5 10.3335 24.5C10.8639 24.5 11.3726 24.7107 11.7477 25.0858C12.1228 25.4609 12.3335 25.9696 12.3335 26.5Z" fill="#D0D5DD"/>
</svg>
