<svg width="32" height="32" viewBox="0 0 32 32" fill="none" xmlns="http://www.w3.org/2000/svg">
<path d="M5.96318 4.49338C5.48269 4.52878 5.03356 4.74533 4.70665 5.09924C4.37973 5.45316 4.19944 5.91802 4.20221 6.39981V15.9998H15.8385V6.39981C15.8414 5.91802 15.6611 5.45316 15.3341 5.09924C15.0072 4.74533 14.5581 4.52878 14.0776 4.49338C11.3756 4.3191 8.66518 4.3191 5.96318 4.49338ZM25.3784 9.64247C25.2682 9.23851 25.0277 8.88224 24.6941 8.62903C24.3606 8.37584 23.9529 8.23986 23.5341 8.24223H19.7173C19.203 8.24223 18.7097 8.44657 18.346 8.81027C17.9823 9.17398 17.7779 9.66727 17.7779 10.1816V22.3377C18.3676 21.9974 19.0365 21.8181 19.7173 21.8181C20.3982 21.8181 21.0671 21.9973 21.6567 22.3377C22.2464 22.6782 22.736 23.1678 23.0765 23.7575C23.4169 24.347 23.5961 25.0159 23.5961 25.6968H25.5355C25.7895 25.6989 26.0412 25.65 26.2759 25.5529C26.5105 25.4559 26.7233 25.3127 26.9015 25.1317C27.0797 24.9508 27.2197 24.7359 27.3133 24.4999C27.4067 24.2637 27.4518 24.0112 27.4458 23.7574C27.3015 18.9886 26.6078 14.2523 25.3784 9.64247Z" fill="#FCFCFD"/>
<path d="M21.6567 25.697C21.6567 26.2113 21.4524 26.7046 21.0887 27.0683C20.7249 27.432 20.2317 27.6364 19.7173 27.6364C19.203 27.6364 18.7097 27.432 18.346 27.0683C17.9823 26.7046 17.7779 26.2113 17.7779 25.697C17.7779 25.1826 17.9823 24.6894 18.346 24.3256C18.7097 23.9619 19.203 23.7576 19.7173 23.7576C20.2317 23.7576 20.7249 23.9619 21.0887 24.3256C21.4524 24.6894 21.6567 25.1826 21.6567 25.697ZM4.20218 23.7576V17.9394H15.8385V23.7576C15.8385 24.2719 15.6342 24.7652 15.2705 25.1289C14.9068 25.4927 14.4135 25.697 13.8991 25.697C13.8991 24.6682 13.4905 23.6816 12.7631 22.9543C12.0357 22.2268 11.0491 21.8182 10.0204 21.8182C8.99164 21.8182 8.00505 22.2268 7.27764 22.9543C6.55022 23.6816 6.14157 24.6682 6.14157 25.697C5.62721 25.697 5.13392 25.4927 4.77021 25.1289C4.4065 24.7652 4.20218 24.2719 4.20218 23.7576Z" fill="#FCFCFD"/>
<path d="M11.9598 25.697C11.9598 26.2113 11.7554 26.7046 11.3917 27.0683C11.028 27.432 10.5347 27.6364 10.0204 27.6364C9.50599 27.6364 9.01271 27.432 8.64899 27.0683C8.28529 26.7046 8.08096 26.2113 8.08096 25.697C8.08096 25.1826 8.28529 24.6894 8.64899 24.3256C9.01271 23.9619 9.50599 23.7576 10.0204 23.7576C10.5347 23.7576 11.028 23.9619 11.3917 24.3256C11.7554 24.6894 11.9598 25.1826 11.9598 25.697Z" fill="#FCFCFD"/>
</svg>
