<svg width="32" height="32" viewBox="0 0 32 32" fill="none" xmlns="http://www.w3.org/2000/svg">
<path d="M2.66666 18V20.6667C2.66666 21.0203 2.80713 21.3594 3.05718 21.6095C3.30723 21.8595 3.64637 22 3.99999 22H17.3333C17.3333 23.0609 17.7547 24.0783 18.5049 24.8284C19.255 25.5786 20.2725 26 21.3333 26C22.3942 26 23.4116 25.5786 24.1617 24.8284C24.9119 24.0783 25.3333 23.0609 25.3333 22H28C28.3536 22 28.6927 21.8595 28.9428 21.6095C29.1928 21.3594 29.3333 21.0203 29.3333 20.6667V10C29.3333 8.93913 28.9119 7.92172 28.1617 7.17157C27.4116 6.42143 26.3942 6 25.3333 6H12C10.9391 6 9.92171 6.42143 9.17156 7.17157C8.42142 7.92172 7.99999 8.93913 7.99999 10V19.3333H5.33332V18C5.33332 17.6464 5.19285 17.3072 4.9428 17.0572C4.69275 16.8071 4.35361 16.6667 3.99999 16.6667C3.64637 16.6667 3.30723 16.8071 3.05718 17.0572C2.80713 17.3072 2.66666 17.6464 2.66666 18ZM20 22C20 21.7363 20.0782 21.4785 20.2247 21.2592C20.3712 21.04 20.5794 20.8691 20.8231 20.7682C21.0667 20.6672 21.3348 20.6408 21.5934 20.6923C21.8521 20.7437 22.0897 20.8707 22.2761 21.0572C22.4626 21.2437 22.5896 21.4812 22.641 21.7399C22.6925 21.9985 22.6661 22.2666 22.5652 22.5102C22.4642 22.7539 22.2933 22.9621 22.0741 23.1086C21.8548 23.2551 21.597 23.3333 21.3333 23.3333C20.9797 23.3333 20.6406 23.1929 20.3905 22.9428C20.1405 22.6928 20 22.3536 20 22ZM10.6667 14H26.6667V19.3333H24.2933C23.9184 18.9209 23.4614 18.5913 22.9517 18.3658C22.442 18.1403 21.8907 18.0238 21.3333 18.0238C20.7759 18.0238 20.2247 18.1403 19.7149 18.3658C19.2052 18.5913 18.7482 18.9209 18.3733 19.3333H10.6667V14ZM10.6667 10C10.6667 9.64638 10.8071 9.30724 11.0572 9.05719C11.3072 8.80714 11.6464 8.66667 12 8.66667H25.3333C25.6869 8.66667 26.0261 8.80714 26.2761 9.05719C26.5262 9.30724 26.6667 9.64638 26.6667 10V11.3333H10.6667V10Z" fill="#F79009"/>
</svg>
