<svg width="20" height="20" viewBox="0 0 20 20" fill="none" xmlns="http://www.w3.org/2000/svg">
<g id="vuesax/twotone/slider-vertical">
<g id="Group 1">
<path id="Vector" d="M8.75534 17.1113C9.52241 17.1113 10.1442 16.4894 10.1442 15.7224C10.1442 14.9553 9.52241 14.3335 8.75534 14.3335C7.98828 14.3335 7.36646 14.9553 7.36646 15.7224C7.36646 16.4894 7.98828 17.1113 8.75534 17.1113Z" stroke="#344054" stroke-width="1.5" stroke-linecap="round" stroke-linejoin="round"/>
<path id="Vector_2" d="M13.7553 17.1113C14.5224 17.1113 15.1442 16.4894 15.1442 15.7224C15.1442 14.9553 14.5224 14.3335 13.7553 14.3335C12.9883 14.3335 12.3665 14.9553 12.3665 15.7224C12.3665 16.4894 12.9883 17.1113 13.7553 17.1113Z" stroke="#344054" stroke-width="1.5" stroke-linecap="round" stroke-linejoin="round"/>
<path id="Vector_3" d="M10.2833 16.1667H12.3666M7.36667 16.1667H6.66663C6.14997 16.1667 5.69164 16.1501 5.28331 16.0917C3.09166 15.8501 2.5 14.8167 2.5 12.0001V10.3334C2.5 7.51675 3.09166 6.48341 5.28331 6.24175C5.69164 6.18341 6.14997 6.16675 6.66663 6.16675H13.1999C13.7166 6.16675 14.1749 6.18341 14.5833 6.24175C16.7749 6.48341 17.3666 7.51675 17.3666 10.3334V12.0001C17.3666 14.2619 16.9851 15.3738 15.6999 15.8492" stroke="#344054" stroke-width="1.5" stroke-linecap="round" stroke-linejoin="round"/>
</g>
</g>
</svg>
