<svg width="30" height="30" viewBox="0 0 30 30" fill="none" xmlns="http://www.w3.org/2000/svg">
<rect width="30" height="30" rx="15" fill="#F04438"/>
<path d="M15.8474 23.0626C15.6449 23.0626 15.4874 23.01 15.3749 22.9576C15.1049 22.8301 14.6474 22.4776 14.6474 21.5326V16.6951L10.6049 20.4001C10.3799 20.6101 10.0199 20.5951 9.80987 20.3626C9.59987 20.1301 9.61489 19.7776 9.84739 19.5676L14.6474 15.1651V14.8276L9.84739 10.4251C9.61489 10.2151 9.59987 9.86256 9.80987 9.63006C10.0199 9.40506 10.3799 9.38257 10.6049 9.59257L14.6474 13.2976V8.46006C14.6474 7.51506 15.1049 7.15507 15.3749 7.03507C15.6449 6.90757 16.2074 6.78755 16.9349 7.39505L19.8224 9.80257C20.1374 10.0651 20.3249 10.4401 20.3324 10.8376C20.3399 11.2351 20.1749 11.6176 19.8674 11.8951L16.4924 14.9926L19.8674 18.0901C20.1674 18.3676 20.3399 18.7576 20.3324 19.1476C20.3249 19.5451 20.1374 19.9201 19.8224 20.1826L16.9349 22.5901C16.5074 22.9576 16.1324 23.0626 15.8474 23.0626ZM15.7724 15.8626V21.5326C15.7724 21.8101 15.8324 21.9301 15.8624 21.9451C15.8699 21.9376 16.0049 21.9076 16.2149 21.7351L19.1024 19.3276C19.1699 19.2676 19.2074 19.2001 19.2074 19.1251C19.2074 19.0501 19.1774 18.9826 19.1099 18.9226L15.7724 15.8626ZM15.8399 8.06256C15.8324 8.07006 15.7724 8.19757 15.7724 8.46757V14.1376L19.1099 11.0776C19.1774 11.0176 19.2074 10.9501 19.2074 10.8751C19.2074 10.8001 19.1699 10.7326 19.1024 10.6726L16.2074 8.26505C16.0124 8.10005 15.8849 8.06256 15.8399 8.06256Z" fill="#FCFCFD"/>
</svg>
