<svg width="25" height="24" viewBox="0 0 25 24" fill="none" xmlns="http://www.w3.org/2000/svg">
<g id="vuesax/linear/car">
<g id="car">
<path id="Vector" d="M16.1767 2.83002H9.15669C6.66669 2.83002 6.11669 4.07002 5.79669 5.59002L4.66669 11H20.6667L19.5367 5.59002C19.2167 4.07002 18.6667 2.83002 16.1767 2.83002Z" stroke="#344054" stroke-width="1.5" stroke-linecap="round" stroke-linejoin="round"/>
<path id="Vector_2" d="M22.6567 19.82C22.7667 20.99 21.8267 22 20.6267 22H18.7467C17.6667 22 17.5167 21.54 17.3267 20.97L17.1267 20.37C16.8467 19.55 16.6667 19 15.2267 19H10.1067C8.66667 19 8.45667 19.62 8.20667 20.37L8.00667 20.97C7.81667 21.54 7.66667 22 6.58667 22H4.70667C3.50667 22 2.56667 20.99 2.67667 19.82L3.23667 13.73C3.37667 12.23 3.66667 11 6.28667 11H19.0467C21.6667 11 21.9567 12.23 22.0967 13.73L22.6567 19.82Z" stroke="#344054" stroke-width="1.5" stroke-linecap="round" stroke-linejoin="round"/>
<path id="Vector_3" d="M4.66669 8H3.66669" stroke="#344054" stroke-width="1.5" stroke-linecap="round" stroke-linejoin="round"/>
<path id="Vector_4" d="M21.6667 8H20.6667" stroke="#344054" stroke-width="1.5" stroke-linecap="round" stroke-linejoin="round"/>
<path id="Vector_5" d="M12.6667 3V5" stroke="#344054" stroke-width="1.5" stroke-linecap="round" stroke-linejoin="round"/>
<path id="Vector_6" d="M11.1667 5H14.1667" stroke="#344054" stroke-width="1.5" stroke-linecap="round" stroke-linejoin="round"/>
<path id="Vector_7" d="M6.66669 15H9.66669" stroke="#344054" stroke-width="1.5" stroke-linecap="round" stroke-linejoin="round"/>
<path id="Vector_8" d="M15.6667 15H18.6667" stroke="#344054" stroke-width="1.5" stroke-linecap="round" stroke-linejoin="round"/>
</g>
</g>
</svg>
