<svg width="30" height="30" viewBox="0 0 30 30" fill="none" xmlns="http://www.w3.org/2000/svg">
<rect width="30" height="30" rx="15" fill="#12B76A"/>
<path d="M17.25 13.875C17.25 14.4717 17.0129 15.044 16.591 15.466C16.169 15.8879 15.5967 16.125 15 16.125C14.4033 16.125 13.831 15.8879 13.409 15.466C12.9871 15.044 12.75 14.4717 12.75 13.875C12.75 13.2783 12.9871 12.706 13.409 12.284C13.831 11.8621 14.4033 11.625 15 11.625C15.5967 11.625 16.169 11.8621 16.591 12.284C17.0129 12.706 17.25 13.2783 17.25 13.875Z" stroke="#F6FEF9" stroke-width="1.5" stroke-linecap="round" stroke-linejoin="round"/>
<path d="M20.625 13.875C20.625 19.2315 15 22.3125 15 22.3125C15 22.3125 9.375 19.2315 9.375 13.875C9.375 12.3832 9.96763 10.9524 11.0225 9.89752C12.0774 8.84263 13.5082 8.25 15 8.25C16.4918 8.25 17.9226 8.84263 18.9775 9.89752C20.0324 10.9524 20.625 12.3832 20.625 13.875Z" stroke="#F6FEF9" stroke-width="1.5" stroke-linecap="round" stroke-linejoin="round"/>
</svg>
